# xmcd
#
# Track frame offsets:
#	150
#	11892
#	23407
#	33355
#	45457
#	57345
#	71322
#	87650
#	98150
#	111405
#	124967
#	135600
#	149317
#	161825
#	177307
#	192492
#	204762
#
# Disc length: 3743 seconds
#
# Revision: 8
# Processed by: cddbd v1.5.2PL0 Copyright (c) Steve Scherf et al.
# Submitted via: EZCDAudioConverter 1.3.4.1
#
DISCID=ef0e9d11
DTITLE=The Byrds - Fifth Dimension
DYEAR=1966
DGENRE=
TTITLE0=5D (Fifth Dimension)
TTITLE1=Wild Mountain Thyme
TTITLE2=Mr. Spaceman
TTITLE3=I See You
TTITLE4=What's Happening?!?!
TTITLE5=I Come And Stand At Every Door
TTITLE6=Eight Miles High
TTITLE7=Hey Joe (Where You Gonna Go)
TTITLE8=Captain Soul
TTITLE9=John Riley
TTITLE10=2-4-2 Fox Trot (The Lear Jet Song)
TTITLE11=Why [Single]
TTITLE12=I Know My Rider (I Know You Rider)
TTITLE13=Psychodrama City
TTITLE14=Eight Miles High [Alternate Version]
TTITLE15=Why [Alternate Version]
TTITLE16=John Riley [Instrumental]
EXTD=
EXTT0=
EXTT1=
EXTT2=
EXTT3=
EXTT4=
EXTT5=
EXTT6=
EXTT7=
EXTT8=
EXTT9=
EXTT10=
EXTT11=
EXTT12=
EXTT13=
EXTT14=
EXTT15=
EXTT16=
PLAYORDER=
